<svg width="28" height="28" viewBox="0 0 28 28" fill="none" xmlns="http://www.w3.org/2000/svg">
<path fill-rule="evenodd" clip-rule="evenodd" d="M14.0001 1.45834C13.768 1.45834 13.5454 1.55053 13.3813 1.71463C13.2172 1.87872 13.1251 2.10128 13.1251 2.33334V15.1352L11.1651 12.8473C11.0903 12.76 10.9991 12.6883 10.8966 12.6362C10.7941 12.5841 10.6823 12.5528 10.5677 12.5439C10.4531 12.535 10.3378 12.5488 10.2285 12.5844C10.1193 12.6201 10.0181 12.6769 9.93072 12.7517C9.84339 12.8264 9.77165 12.9177 9.71958 13.0202C9.66751 13.1227 9.63613 13.2344 9.62725 13.349C9.61837 13.4636 9.63215 13.5789 9.6678 13.6882C9.70346 13.7975 9.76029 13.8987 9.83506 13.986L13.3351 18.0693C13.4172 18.1654 13.5192 18.2425 13.634 18.2954C13.7488 18.3483 13.8737 18.3757 14.0001 18.3757C14.1264 18.3757 14.2513 18.3483 14.3661 18.2954C14.4809 18.2425 14.5829 18.1654 14.6651 18.0693L18.1651 13.986C18.2398 13.8987 18.2967 13.7975 18.3323 13.6882C18.368 13.5789 18.3817 13.4636 18.3729 13.349C18.364 13.2344 18.3326 13.1227 18.2805 13.0202C18.2285 12.9177 18.1567 12.8264 18.0694 12.7517C17.9821 12.6769 17.8809 12.6201 17.7716 12.5844C17.6623 12.5488 17.547 12.535 17.4324 12.5439C17.3178 12.5528 17.206 12.5841 17.1036 12.6362C17.0011 12.6883 16.9098 12.76 16.8351 12.8473L14.8751 15.134V2.33334C14.8751 2.10128 14.7829 1.87872 14.6188 1.71463C14.4547 1.55053 14.2321 1.45834 14.0001 1.45834Z" fill="#CFCFCF"/>
<path d="M16.625 10.5V10.941C17.1703 10.7472 17.7643 10.7391 18.3147 10.9179C18.8651 11.0968 19.3409 11.4525 19.668 11.9298C19.9952 12.4072 20.1554 12.9793 20.1237 13.5571C20.092 14.1349 19.8701 14.686 19.4927 15.1247L15.9927 19.208C15.7463 19.4954 15.4406 19.726 15.0966 19.8842C14.7527 20.0423 14.3786 20.1242 14 20.1242C13.6215 20.1242 13.2474 20.0423 12.9034 19.8842C12.5595 19.726 12.2538 19.4954 12.0074 19.208L8.50737 15.1247C8.13099 14.6858 7.91004 14.1349 7.87884 13.5575C7.84764 12.9802 8.00793 12.4087 8.33483 11.9318C8.66173 11.4548 9.13694 11.0992 9.68667 10.92C10.2364 10.7409 10.8299 10.7483 11.375 10.941V10.5H9.33337C6.03404 10.5 4.38321 10.5 3.35887 11.5255C2.33337 12.5498 2.33337 14.2007 2.33337 17.5V18.6667C2.33337 21.966 2.33337 23.6168 3.35887 24.6412C4.38321 25.6667 6.03404 25.6667 9.33337 25.6667H18.6667C21.966 25.6667 23.6169 25.6667 24.6412 24.6412C25.6667 23.6168 25.6667 21.966 25.6667 18.6667V17.5C25.6667 14.2007 25.6667 12.5498 24.6412 11.5255C23.6169 10.5 21.966 10.5 18.6667 10.5H16.625Z" fill="#CFCFCF"/>
</svg>
