<svg width="25" height="25" viewBox="0 0 25 25" fill="none" xmlns="http://www.w3.org/2000/svg">
<path d="M12.4999 9.11459C11.6021 9.11459 10.741 9.47127 10.1061 10.1062C9.47118 10.741 9.1145 11.6021 9.1145 12.5C9.1145 13.3979 9.47118 14.259 10.1061 14.8939C10.741 15.5287 11.6021 15.8854 12.4999 15.8854C13.3978 15.8854 14.2589 15.5287 14.8938 14.8939C15.5287 14.259 15.8853 13.3979 15.8853 12.5C15.8853 11.6021 15.5287 10.741 14.8938 10.1062C14.2589 9.47127 13.3978 9.11459 12.4999 9.11459Z" fill="white"/>
<path fill-rule="evenodd" clip-rule="evenodd" d="M7.0521 3.21041C10.673 2.80905 14.3271 2.80905 17.9479 3.21041C19.9261 3.43124 21.5209 4.98853 21.7531 6.97395C22.1825 10.6455 22.1825 14.3545 21.7531 18.026C21.5209 20.0114 19.9261 21.5687 17.949 21.7906C14.3278 22.1921 10.6733 22.1921 7.0521 21.7906C5.07398 21.5687 3.47918 20.0114 3.24689 18.0271C2.81744 14.3552 2.81744 10.6458 3.24689 6.97395C3.47918 4.98853 5.07398 3.43124 7.0521 3.21041ZM17.7084 6.24999C17.4321 6.24999 17.1671 6.35974 16.9718 6.55509C16.7764 6.75044 16.6667 7.01539 16.6667 7.29166C16.6667 7.56793 16.7764 7.83288 16.9718 8.02823C17.1671 8.22358 17.4321 8.33332 17.7084 8.33332C17.9846 8.33332 18.2496 8.22358 18.4449 8.02823C18.6403 7.83288 18.75 7.56793 18.75 7.29166C18.75 7.01539 18.6403 6.75044 18.4449 6.55509C18.2496 6.35974 17.9846 6.24999 17.7084 6.24999ZM7.5521 12.5C7.5521 11.1877 8.0734 9.9292 9.00131 9.00129C9.92923 8.07337 11.1877 7.55207 12.5 7.55207C13.8123 7.55207 15.0708 8.07337 15.9987 9.00129C16.9266 9.9292 17.4479 11.1877 17.4479 12.5C17.4479 13.8123 16.9266 15.0708 15.9987 15.9987C15.0708 16.9266 13.8123 17.4479 12.5 17.4479C11.1877 17.4479 9.92923 16.9266 9.00131 15.9987C8.0734 15.0708 7.5521 13.8123 7.5521 12.5Z" fill="white"/>
</svg>
