<svg width="19" height="21" viewBox="0 0 19 21" fill="none" xmlns="http://www.w3.org/2000/svg">
<path fill-rule="evenodd" clip-rule="evenodd" d="M8.24583 0.337501C10.1802 -0.0979153 11.5833 1.56458 11.5833 3.20833V17.7917C11.5833 19.4354 10.1802 21.0979 8.24583 20.6625C3.59792 19.6167 0.125 15.4646 0.125 10.5C0.125 5.53542 3.59792 1.38333 8.24583 0.337501ZM13.9719 6.63854C14.1672 6.44326 14.4321 6.33356 14.7083 6.33356C14.9845 6.33356 15.2495 6.44326 15.4448 6.63854L18.5698 9.76354C18.7651 9.95888 18.8748 10.2238 18.8748 10.5C18.8748 10.7762 18.7651 11.0411 18.5698 11.2365L15.4448 14.3615C15.2483 14.5512 14.9852 14.6562 14.7121 14.6538C14.439 14.6515 14.1777 14.5419 13.9846 14.3488C13.7914 14.1556 13.6819 13.8944 13.6795 13.6213C13.6771 13.3481 13.7821 13.085 13.9719 12.8885L15.3187 11.5417H6.375C6.09873 11.5417 5.83378 11.4319 5.63843 11.2366C5.44308 11.0412 5.33333 10.7763 5.33333 10.5C5.33333 10.2237 5.44308 9.95878 5.63843 9.76343C5.83378 9.56808 6.09873 9.45833 6.375 9.45833H15.3187L13.9719 8.11146C13.7766 7.91612 13.6669 7.65121 13.6669 7.375C13.6669 7.09879 13.7766 6.83388 13.9719 6.63854Z" fill="white"/>
</svg>
