<svg width="28" height="28" viewBox="0 0 28 28" fill="none" xmlns="http://www.w3.org/2000/svg">
<mask id="mask0_10_300" style="mask-type:luminance" maskUnits="userSpaceOnUse" x="2" y="3" width="23" height="23">
<path d="M10.9998 3.99994H4.99976C4.73455 3.99994 4.48019 4.1053 4.29265 4.29283C4.10511 4.48037 3.99976 4.73473 3.99976 4.99995V11C3.99976 11.2652 4.10511 11.5196 4.29265 11.7071C4.48019 11.8946 4.73455 12 4.99976 12H10.9998C11.265 12 11.5194 11.8946 11.7069 11.7071C11.8945 11.5196 11.9998 11.2652 11.9998 11V4.99995C11.9998 4.73473 11.8945 4.48037 11.7069 4.29283C11.5194 4.1053 11.265 3.99994 10.9998 3.99994ZM10.9998 16H4.99976C4.73455 16 4.48019 16.1054 4.29265 16.2929C4.10511 16.4805 3.99976 16.7348 3.99976 17V23.0001C3.99976 23.2653 4.10511 23.5197 4.29265 23.7072C4.48019 23.8947 4.73455 24.0001 4.99976 24.0001H10.9998C11.265 24.0001 11.5194 23.8947 11.7069 23.7072C11.8945 23.5197 11.9998 23.2653 11.9998 23.0001V17C11.9998 16.7348 11.8945 16.4805 11.7069 16.2929C11.5194 16.1054 11.265 16 10.9998 16ZM22.9999 3.99994H16.9999C16.7346 3.99994 16.4803 4.1053 16.2927 4.29283C16.1052 4.48037 15.9999 4.73473 15.9999 4.99995V11C15.9999 11.2652 16.1052 11.5196 16.2927 11.7071C16.4803 11.8946 16.7346 12 16.9999 12H22.9999C23.2651 12 23.5195 11.8946 23.707 11.7071C23.8946 11.5196 23.9999 11.2652 23.9999 11V4.99995C23.9999 4.73473 23.8946 4.48037 23.707 4.29283C23.5195 4.1053 23.2651 3.99994 22.9999 3.99994Z" fill="white" stroke="white" stroke-width="2.00002" stroke-linejoin="round"/>
<path d="M16 16H24.0001M20 20.0001H24.0001M16 24.0001H24.0001" stroke="white" stroke-width="2.00002" stroke-linecap="round" stroke-linejoin="round"/>
</mask>
<g mask="url(#mask0_10_300)">
<path d="M2 1.99991H26.0002V26.0001H2V1.99991Z" fill="#CFCFCF"/>
</g>
</svg>
