<svg width="28" height="28" viewBox="0 0 28 28" fill="none" xmlns="http://www.w3.org/2000/svg">
<path d="M14.1283 17.955L9.60164 22.4817C9.05358 23.0106 8.32164 23.3062 7.55997 23.3062C6.7983 23.3062 6.06636 23.0106 5.51831 22.4817C5.24951 22.2139 5.03623 21.8958 4.8907 21.5454C4.74517 21.195 4.67026 20.8194 4.67026 20.44C4.67026 20.0606 4.74517 19.685 4.8907 19.3346C5.03623 18.9842 5.24951 18.6661 5.51831 18.3983L10.045 13.8717C10.2647 13.652 10.3881 13.354 10.3881 13.0433C10.3881 12.7326 10.2647 12.4347 10.045 12.215C9.82528 11.9953 9.52732 11.8719 9.21664 11.8719C8.90595 11.8719 8.60799 11.9953 8.38831 12.215L3.86164 16.7533C2.94972 17.7459 2.45653 19.0524 2.48506 20.4C2.51359 21.7476 3.06163 23.0321 4.01474 23.9852C4.96785 24.9383 6.25233 25.4864 7.59993 25.5149C8.94753 25.5434 10.254 25.0502 11.2466 24.1383L15.785 19.6117C16.0047 19.392 16.1281 19.094 16.1281 18.7833C16.1281 18.4726 16.0047 18.1747 15.785 17.955C15.5653 17.7353 15.2673 17.6119 14.9566 17.6119C14.646 17.6119 14.348 17.7353 14.1283 17.955ZM24.1383 3.86166C23.1569 2.88633 21.8294 2.33891 20.4458 2.33891C19.0622 2.33891 17.7347 2.88633 16.7533 3.86166L12.215 8.38833C12.1062 8.49711 12.0199 8.62624 11.961 8.76837C11.9022 8.91049 11.8719 9.06282 11.8719 9.21666C11.8719 9.3705 11.9022 9.52282 11.961 9.66495C12.0199 9.80708 12.1062 9.93621 12.215 10.045C12.3238 10.1538 12.4529 10.2401 12.595 10.2989C12.7371 10.3578 12.8895 10.3881 13.0433 10.3881C13.1971 10.3881 13.3495 10.3578 13.4916 10.2989C13.6337 10.2401 13.7629 10.1538 13.8716 10.045L18.3983 5.51833C18.9464 4.98939 19.6783 4.69379 20.44 4.69379C21.2016 4.69379 21.9336 4.98939 22.4816 5.51833C22.7504 5.78606 22.9637 6.10424 23.1092 6.4546C23.2548 6.80496 23.3297 7.18061 23.3297 7.55999C23.3297 7.93938 23.2548 8.31503 23.1092 8.66539C22.9637 9.01575 22.7504 9.33392 22.4816 9.60166L17.955 14.1283C17.8456 14.2368 17.7588 14.3658 17.6996 14.508C17.6404 14.6502 17.6099 14.8026 17.6099 14.9567C17.6099 15.1107 17.6404 15.2632 17.6996 15.4053C17.7588 15.5475 17.8456 15.6765 17.955 15.785C18.0634 15.8943 18.1925 15.9811 18.3346 16.0404C18.4768 16.0996 18.6293 16.1301 18.7833 16.1301C18.9373 16.1301 19.0898 16.0996 19.232 16.0404C19.3741 15.9811 19.5032 15.8943 19.6116 15.785L24.1383 11.2467C25.1136 10.2652 25.6611 8.9378 25.6611 7.55416C25.6611 6.17052 25.1136 4.84308 24.1383 3.86166ZM10.3016 17.6983C10.4107 17.8065 10.5399 17.892 10.6821 17.9501C10.8242 18.0081 10.9764 18.0375 11.13 18.0367C11.2835 18.0375 11.4357 18.0081 11.5779 17.9501C11.72 17.892 11.8493 17.8065 11.9583 17.6983L17.6983 11.9583C17.918 11.7386 18.0414 11.4407 18.0414 11.13C18.0414 10.8193 17.918 10.5213 17.6983 10.3017C17.4786 10.082 17.1807 9.95855 16.87 9.95855C16.5593 9.95855 16.2613 10.082 16.0416 10.3017L10.3016 16.0417C10.1923 16.1501 10.1055 16.2792 10.0463 16.4213C9.98704 16.5635 9.95654 16.716 9.95654 16.87C9.95654 17.024 9.98704 17.1765 10.0463 17.3187C10.1055 17.4608 10.1923 17.5899 10.3016 17.6983Z" fill="url(#paint0_linear_10_318)"/>
<defs>
<linearGradient id="paint0_linear_10_318" x1="-0.977237" y1="29.084" x2="33.3889" y2="16.9665" gradientUnits="userSpaceOnUse">
<stop stop-color="#9423FA"/>
<stop offset="0.333333" stop-color="#AA07E0"/>
<stop offset="0.640625" stop-color="#E70CA8"/>
<stop offset="1" stop-color="#FF9255"/>
</linearGradient>
</defs>
</svg>
