<svg width="23" height="24" viewBox="0 0 23 24" fill="none" xmlns="http://www.w3.org/2000/svg">
<path d="M22.0196 15.4041L16.8025 21.3796C16.1167 22.1878 15.1125 22.6286 14.0348 22.6286H12.2957H6.19685L4.84971 24L0 19.2735L3.47807 15.8204C4.92319 14.4 7.05412 13.9102 8.96461 14.5714L9.72391 14.8408H14.4267C15.2594 14.8408 15.9208 15.5265 15.8963 16.3592C15.8718 17.1673 15.1615 17.8041 14.3532 17.8041H11.5364C11.218 17.8041 10.9731 18.0735 10.9731 18.3673C10.9731 18.6857 11.2425 18.9306 11.5364 18.9306H12.3202H14.3777C15.8228 18.9306 17.023 17.7796 17.0719 16.3837V16.3592L19.6927 13.4204C20.2561 12.7837 21.2113 12.6857 21.8727 13.2C22.5095 13.7633 22.583 14.7673 22.0196 15.4041ZM6.19685 7.2V6.34286C6.19685 5.97551 6.46628 5.63265 6.83368 5.58367L7.83791 5.41225C7.96038 4.97143 8.13183 4.53061 8.35227 4.13878L7.76443 3.30612C7.54399 2.98776 7.59297 2.57143 7.8624 2.30204L8.47474 1.6898C8.74417 1.42041 9.16056 1.37143 9.47897 1.59184L10.3117 2.17959C10.7036 1.95918 11.1445 1.78776 11.5854 1.66531L11.7569 0.661224C11.8303 0.269388 12.1488 0 12.5162 0H13.3979C13.7653 0 14.1082 0.269388 14.1572 0.636735L14.3287 1.64082C14.7696 1.78776 15.2104 1.95918 15.6023 2.17959L16.4351 1.59184C16.7535 1.37143 17.1699 1.42041 17.4393 1.6898L18.0517 2.30204C18.3211 2.57143 18.3456 2.98776 18.1497 3.30612L17.5618 4.13878C17.7823 4.53061 17.9537 4.94694 18.0762 5.41225L19.0804 5.58367C19.4478 5.65714 19.7172 5.97551 19.7172 6.34286V7.2C19.7172 7.56735 19.4478 7.9102 19.0804 7.95918L18.0517 8.13061C17.9292 8.57143 17.7578 9.01225 17.5373 9.40408L18.1252 10.2367C18.3456 10.5551 18.2966 10.9714 18.0272 11.2408L17.4149 11.8531C17.1454 12.1224 16.729 12.1469 16.4106 11.951L15.6023 11.3388C15.2104 11.5592 14.7941 11.7306 14.3287 11.8531L14.1572 12.8571C14.0837 13.2245 13.7653 13.4939 13.3979 13.4939H12.5407C12.1733 13.4939 11.8303 13.2245 11.7814 12.8571L11.6099 11.8531C11.169 11.7306 10.7281 11.5592 10.3362 11.3388L9.47897 11.9265C9.16056 12.1469 8.74417 12.098 8.47474 11.8286L7.8624 11.2163C7.59297 10.9469 7.56848 10.5306 7.76443 10.2122L8.35227 9.37959C8.13183 8.98775 7.96038 8.57143 7.83791 8.10612L6.83368 7.93469C6.46628 7.88571 6.19685 7.56735 6.19685 7.2ZM10.6302 6.75918C10.6302 8.03265 11.6589 9.08571 12.957 9.08571C14.2552 9.08571 15.2839 8.05714 15.2839 6.75918C15.2839 5.48571 14.2552 4.43265 12.957 4.43265C11.6589 4.43265 10.6302 5.48571 10.6302 6.75918Z" fill="black"/>
</svg>
